<?xml version="1.0" encoding="iso-8859-1"?>
<!-- Uploaded to: SVG Repo, www.svgrepo.com, Generator: SVG Repo Mixer Tools -->
<svg fill="#000000" height="800px" width="800px" version="1.1" id="Layer_1" xmlns="http://www.w3.org/2000/svg" xmlns:xlink="http://www.w3.org/1999/xlink" 
	 viewBox="0 0 511.999 511.999" xml:space="preserve">
<g>
	<g>
		<path d="M478.168,59.203H33.831C15.176,59.203,0,74.379,0,93.034v325.931c0,18.655,15.176,33.831,33.831,33.831h444.337
			c18.655,0,33.831-15.176,33.831-33.831V93.034C512,74.379,496.823,59.203,478.168,59.203z M79.779,419.336H33.831
			c-0.205,0-0.371-0.166-0.371-0.371V208.04h35.166v100.992c0,4.466,3.62,8.086,8.086,8.086h3.067V419.336z M185.921,419.336
			h-72.682V317.118h2.509c4.466,0,8.086-3.62,8.086-8.086V208.04h51.212v100.992c0,4.466,3.62,8.086,8.086,8.086h2.788V419.336z
			 M292.341,419.336H219.38V317.118h2.788c4.466,0,8.086-3.62,8.086-8.086V208.04h51.212v100.992c0,4.466,3.62,8.086,8.086,8.086
			h2.788V419.336z M281.76,128.804c0-15.082,12.227-27.311,27.311-27.311c15.084,0,27.311,12.227,27.311,27.311
			c0,15.084-12.227,27.31-27.311,27.31C293.987,156.114,281.76,143.887,281.76,128.804z M398.76,419.336H325.8V317.118h2.788
			c4.466,0,8.086-3.62,8.086-8.086V208.04h51.212v100.992c0,4.466,3.62,8.086,8.086,8.086h2.788V419.336z M377.27,128.804
			c0-21.109,17.112-38.221,38.221-38.221s38.221,17.111,38.221,38.221c0,21.109-17.112,38.221-38.221,38.221
			C394.382,167.024,377.27,149.913,377.27,128.804z M478.169,419.336H432.22V317.118h2.788c4.466,0,8.086-3.62,8.086-8.086V208.04
			h35.445v210.925h0.001C478.54,419.17,478.374,419.336,478.169,419.336z"/>
	</g>
</g>
</svg>